<svg width="48" height="48" viewBox="0 0 48 48" fill="none" xmlns="http://www.w3.org/2000/svg">
<g filter="url(#filter0_d_1635_59)">
<rect x="8" y="6" width="32" height="32" rx="16" fill="url(#paint0_linear_1635_59)" shape-rendering="crispEdges"/>
<path d="M24 25.75C26.0711 25.75 27.75 24.0711 27.75 22C27.75 19.9289 26.0711 18.25 24 18.25C21.9289 18.25 20.25 19.9289 20.25 22C20.25 24.0711 21.9289 25.75 24 25.75Z" stroke="#FE6007" stroke-width="1.5" stroke-linecap="round" stroke-linejoin="round"/>
<path d="M24 16.25V15" stroke="#FE6007" stroke-width="1.5" stroke-linecap="round" stroke-linejoin="round"/>
<path d="M19.9312 17.9313L19.0499 17.05" stroke="#FE6007" stroke-width="1.5" stroke-linecap="round" stroke-linejoin="round"/>
<path d="M18.25 22H17" stroke="#FE6007" stroke-width="1.5" stroke-linecap="round" stroke-linejoin="round"/>
<path d="M19.9312 26.0688L19.0499 26.9501" stroke="#FE6007" stroke-width="1.5" stroke-linecap="round" stroke-linejoin="round"/>
<path d="M24 27.75V29" stroke="#FE6007" stroke-width="1.5" stroke-linecap="round" stroke-linejoin="round"/>
<path d="M28.0687 26.0688L28.95 26.9501" stroke="#FE6007" stroke-width="1.5" stroke-linecap="round" stroke-linejoin="round"/>
<path d="M29.75 22H31" stroke="#FE6007" stroke-width="1.5" stroke-linecap="round" stroke-linejoin="round"/>
<path d="M28.0687 17.9313L28.95 17.05" stroke="#FE6007" stroke-width="1.5" stroke-linecap="round" stroke-linejoin="round"/>
</g>
<defs>
<filter id="filter0_d_1635_59" x="0" y="0" width="48" height="48" filterUnits="userSpaceOnUse" color-interpolation-filters="sRGB">
<feFlood flood-opacity="0" result="BackgroundImageFix"/>
<feColorMatrix in="SourceAlpha" type="matrix" values="0 0 0 0 0 0 0 0 0 0 0 0 0 0 0 0 0 0 127 0" result="hardAlpha"/>
<feOffset dy="2"/>
<feGaussianBlur stdDeviation="4"/>
<feComposite in2="hardAlpha" operator="out"/>
<feColorMatrix type="matrix" values="0 0 0 0 0 0 0 0 0 0 0 0 0 0 0 0 0 0 0.1 0"/>
<feBlend mode="normal" in2="BackgroundImageFix" result="effect1_dropShadow_1635_59"/>
<feBlend mode="normal" in="SourceGraphic" in2="effect1_dropShadow_1635_59" result="shape"/>
</filter>
<linearGradient id="paint0_linear_1635_59" x1="24" y1="6" x2="24" y2="38" gradientUnits="userSpaceOnUse">
<stop offset="0.338542" stop-color="#A4B2F9"/>
<stop offset="0.75" stop-color="#5C5F9B" stop-opacity="0.98"/>
<stop offset="0.989583" stop-color="#130D3D" stop-opacity="0.96"/>
</linearGradient>
</defs>
</svg>
